<?xml version="1.0" encoding="utf-8"?>
<!-- Generator: Adobe Illustrator 19.0.0, SVG Export Plug-In . SVG Version: 6.00 Build 0)  -->
<svg version="1.1" xmlns="http://www.w3.org/2000/svg" xmlns:xlink="http://www.w3.org/1999/xlink" x="0px" y="0px"
	 width="1171.6px" height="64.4px" viewBox="489 127.6 1171.6 64.4" style="enable-background:new 489 127.6 1171.6 64.4;"
	 xml:space="preserve">
<style type="text/css">
	.st0{display:none;}
	.st1{display:inline;fill:none;stroke:#1B75BB;stroke-width:3;stroke-miterlimit:10;}
	.st2{display:inline;}
	.st3{fill:#1B75BB;}
	.st4{fill:#1EB0F8;}
	.st5{fill:#13568C;}
	.st6{fill:none;stroke:#1B75BB;stroke-width:3;stroke-miterlimit:10;}
	.st7{fill:#104E80;}
</style>
<g id="left-cable-merged" class="st0">
	<path id="XMLID_1_" class="st1" d="M489,159.7c76.3,2.3,133.9-16.7,215.3-7.7s185,40,253,37s116.6-57.4,236.8-54.7
		c120.2,2.7,147.2,47.8,234.2,47.8c87,0,157.1-33,200.5-22"/>
	<path id="XMLID_2_" class="st1" d="M489,161.5c76.3-2.3,133.9,16.7,215.3,7.7s185-40,253-37s116.6,57.4,236.8,54.7
		c120.2-2.7,147.2-47.8,234.2-47.8c87,0,157.1,33,200.5,22"/>
	<g class="st2">
		<g>
			<path class="st3" d="M1628.8,160.7c-0.9,13.8,14.6,13.9,14.6,13.9l1.8-25.7C1645.1,148.8,1629.7,146.9,1628.8,160.7z"/>
			<path class="st4" d="M1652.8,162.3c-0.6,8.1-5.8,14.3-10.5,14c-4.7-0.3-9.1-7.2-8.5-15.3s5.8-14.3,10.5-14
				C1648.9,147.3,1653.3,154.2,1652.8,162.3z"/>
			
				<ellipse transform="matrix(0.9976 6.857743e-02 -6.857743e-02 0.9976 14.9566 -112.3757)" class="st5" cx="1644.2" cy="161.7" rx="8.6" ry="12.9"/>
		</g>
		<path class="st3" d="M1658.5,159.7l-13.2-0.6c-1.1,0-1.9-1-1.9-2.1l0-0.8c0-1.1,1-1.9,2.1-1.9l13.2,0.6c1.1,0,1.9,1,1.9,2.1l0,0.8
			C1660.5,158.9,1659.6,159.7,1658.5,159.7z"/>
		<path class="st3" d="M1658.4,169.2l-13.2-0.6c-1.1,0-1.9-1-1.9-2.1l0-0.8c0-1.1,1-1.9,2.1-1.9l13.2,0.6c1.1,0,1.9,1,1.9,2.1l0,0.8
			C1660.4,168.3,1659.5,169.2,1658.4,169.2z"/>
	</g>
</g>
<g id="right-cable-merged">
	<path id="XMLID_3_" class="st6" d="M1658.6,159.1c-43.4-11-101.5,30.2-188.5,30.2s-124-43.3-244.2-46
		c-120.2-2.7-218.8,33.8-286.8,36.8S817.5,141,736.1,132s-139,29-215.3,26.7"/>
	<path id="XMLID_4_" class="st6" d="M1658.6,160.7c-43.4,11-101.5-30.2-188.5-30.2s-124,43.3-244.2,46
		c-120.2,2.7-218.8-33.8-286.8-36.8s-121.6,39.1-203,48.1s-139-29-215.3-26.7"/>
	<g>
		<path class="st3" d="M514.6,146.5c2.3,2.8,3.9,7.4,3.5,12.4c-0.3,5.1-2.6,9.4-5.3,11.9c4.4-0.9,9.7-3.6,10.3-11.5
			C523.6,151.4,518.9,148,514.6,146.5z"/>
		<path class="st4" d="M499.1,157.6C499.1,157.6,499.1,157.6,499.1,157.6c0-0.2,0-0.5,0.1-0.7C499.2,157.1,499.1,157.3,499.1,157.6z
			"/>
		<path class="st4" d="M514.6,146.5c-1.4-1.7-3.2-2.8-5-3c-4.5-0.3-9.4,5.3-10.4,12.7c0.9-6.4,4.9-11.2,9.3-10.9c0,0,0,0,0,0
			c4.7,0.3,8.1,6.3,7.7,13.5c-0.5,7.1-4.7,12.6-9.4,12.3c0,0,0,0,0,0c-3.8-0.3-6.8-4.2-7.5-9.5c0.8,6.2,4.5,11,8.4,11.3
			c1.8,0.1,3.6-0.7,5.2-2.1c2.8-2.5,5-6.8,5.3-11.9C518.5,153.9,517,149.3,514.6,146.5z"/>
		<path class="st3" d="M506.7,171.1C506.7,171.1,506.8,171.1,506.7,171.1c4.7,0.3,8.9-5.2,9.4-12.3c0.5-7.1-2.9-13.1-7.7-13.5
			c0,0,0,0,0,0c-4.4-0.3-8.4,4.5-9.3,10.9c0,0.2,0,0.3-0.1,0.5c0,0.3-0.1,0.5-0.1,0.8c0,0,0,0,0,0c-0.1,1-0.1,1.9,0,2.8
			c0,0.2,0,0.4,0.1,0.6c0,0.2,0,0.4,0.1,0.6C500,166.8,502.9,170.8,506.7,171.1z M509.5,163.7c0,1.1-1,1.9-2.1,1.9l-0.3,0l-1,0
			c-1.1,0-1.9-1-1.9-2.1l0-0.8c0-1.1,1-1.9,2.1-1.9l1.1,0l0.2,0c1.1,0,1.9,1,1.9,2.1L509.5,163.7z M504.2,153.1c0-1.1,1-1.9,2.1-1.9
			l1.3,0.1c0.2,0,0.4,0,0.5,0.1c0.8,0.3,1.4,1.1,1.4,2l0,0.8c0,1-0.8,1.7-1.7,1.9c-0.1,0-0.3,0-0.4,0l-1.3-0.1c-1.1,0-1.9-1-1.9-2.1
			L504.2,153.1z"/>
		<path class="st7" d="M506.1,156l1.3,0.1c0.1,0,0.3,0,0.4,0c0.9-0.1,1.6-0.9,1.7-1.9l0-0.8c0-0.9-0.6-1.7-1.4-2
			c-0.2-0.1-0.3-0.1-0.5-0.1l-1.3-0.1c-1.1,0-2,0.8-2.1,1.9l0,0.8C504.1,155,505,155.9,506.1,156z"/>
		<path class="st7" d="M507.7,160.8l-0.2,0l-1.1,0c-1.1,0-2,0.8-2.1,1.9l0,0.8c0,1.1,0.8,2,1.9,2.1l1,0l0.3,0c1.1,0,2-0.8,2.1-1.9
			l0-0.8C509.6,161.8,508.7,160.9,507.7,160.8z"/>
	</g>
</g>
</svg>
