<svg version="1.1" id="magnifyingglasSvg" xmlns="http://www.w3.org/2000/svg" xmlns:xlink="http://www.w3.org/1999/xlink" width="250px" height="310px" viewBox="0 0 250 310" style="enable-background:new 0 0 250 310;" xml:space="preserve">
<style type="text/css">
	.st0{fill:#D8B38C;}
	.st1{fill:#1B75BB;}
	.st2{fill:#1EB0F8;}
	.st3{fill:#FFFFFF;}
	.st4{fill:#E3BC92;}
	.st5{fill:#F2D0B4;}
	.st6{fill:#E6E6E6;}
	.st7{fill:#D9D9D9;}
	.st8{fill:#1EA9F8;}
    
</style>
<g id="XMLID_1_">
	<path id="XMLID_17_" class="st0 magniFill" d="M137.3,252.7c-5.6,11.5-20.9,16.5-26.3,15.7V292c1.7,1.9,4.2,3,6.9,3h40.4v-67.7
		C149.2,231.3,143.1,240.5,137.3,252.7z"/>
	<path id="XMLID_16_" class="st1 magniFill" d="M247.8,86.4c0-43.4-35.1-78.5-78.5-78.5S90.8,43,90.8,86.4c0,41.5,32.2,75.5,73,78.3v31.6h-5.5
		v9.4c1.8-0.7,3.7-1,5.2-0.6l0,0c3.6,0,7.1,2.1,8.7,5.6c2.1,4.8,0,10.4-4.8,12.6l-9,4l0,0V295v15h22v-18.9h-10.8
		c-4.4,0-7.9-3.6-7.9-7.9c0-4.4,3.6-7.9,7.9-7.9c-4.4-0.3-7.9-4-7.9-8.5c0-4.6,3.7-8.3,8.2-8.5c-4.5-0.2-8.2-3.9-8.2-8.5
		s3.7-8.3,8.2-8.5c-4.5-0.2-8.2-3.9-8.2-8.5c0-4.7,3.8-8.5,8.5-8.5h10.3v-28.1H175v-31.6C215.5,161.8,247.8,127.9,247.8,86.4z
		 M169.3,154.8c-35.4,0-64.4-26.8-68-61.2c0-0.1,0-0.3,0-0.4v-0.1c-0.1-0.9-0.2-1.9-0.2-2.8c0-0.2,0-0.3,0-0.5c0-0.5,0-1-0.1-1.5
		c0-0.5,0-1,0-1.6c0-0.1,0-0.2,0-0.3l0,0l0,0v-0.1c0.1-37.7,30.7-68.3,68.4-68.3c37.8,0,68.4,30.6,68.4,68.4
		S207.1,154.8,169.3,154.8z"/>
	<path id="XMLID_14_" class="st2 magniFill" d="M237.7,86.4c0-37.8-30.6-68.4-68.4-68.4s-68.4,30.6-68.4,68.3c0.1-4.5,0.5-9,1.4-13.5
		s2.3-8.8,4-13c0.4-1,0.9-2.1,1.4-3.1s1-2,1.6-3c1.1-2,2.3-3.9,3.6-5.8c1.3-1.9,2.7-3.7,4.1-5.4c0.7-0.9,1.5-1.7,2.3-2.6
		c0.8-0.8,1.6-1.6,2.4-2.4c1.6-1.6,3.4-3.1,5.2-4.5c1.8-1.4,3.7-2.7,5.6-4c3.8-2.5,7.9-4.5,12.2-6.2c1.1-0.4,2-0.8,3.2-1.2
		c-25.6,10.7-43.6,35.7-43.6,64.9s18,54.2,43.7,64.9c-1.2-0.4-2.1-0.8-3.2-1.2c-4.3-1.7-8.4-3.8-12.2-6.2c-3.8-2.5-7.5-5.3-10.7-8.5
		c-0.8-0.8-1.6-1.6-2.4-2.4c-0.8-0.8-1.5-1.7-2.3-2.6c-1.5-1.7-2.8-3.6-4.1-5.4c-1.3-1.9-2.5-3.8-3.6-5.8c-0.5-1-1.1-2-1.6-3
		s-1-2.1-1.4-3.1c-0.9-2.1-1.6-4.2-2.3-6.4c-0.7-2.2-1.2-4.4-1.7-6.6c-0.4-2.1-0.8-4.2-1-6.4c3.6,34.4,32.7,61.2,68,61.2
		C207.1,154.8,237.7,124.2,237.7,86.4z"/>
	<path id="XMLID_114_" class="st3 magniFill" d="M103.9,106.6c0.7,2.2,1.5,4.3,2.3,6.4c0.4,1.1,0.9,2.1,1.4,3.1s1,2,1.6,3
		c1.1,2,2.3,3.9,3.6,5.8c1.3,1.9,2.7,3.7,4.1,5.4c0.7,0.9,1.5,1.7,2.3,2.6c0.8,0.8,1.6,1.6,2.4,2.4c3.2,3.2,6.9,6,10.7,8.5
		s7.9,4.5,12.2,6.2c1.1,0.4,2.1,0.8,3.2,1.2c-25.6-10.6-43.7-35.7-43.7-64.9s18-54.2,43.6-64.9c-1.1,0.4-2.1,0.8-3.2,1.2
		c-4.3,1.7-8.4,3.8-12.2,6.2c-1.9,1.2-3.8,2.6-5.6,4c-1.8,1.4-3.5,2.9-5.2,4.5c-0.8,0.8-1.6,1.6-2.4,2.4c-0.8,0.8-1.6,1.7-2.3,2.6
		c-1.5,1.8-2.8,3.6-4.1,5.4c-1.3,1.9-2.5,3.8-3.6,5.8c-0.5,1-1.1,2-1.6,3s-1,2.1-1.4,3.1c-1.8,4.2-3.2,8.6-4,13
		c-1,4.4-1.3,9-1.4,13.5v0.1l0,0c0,0.1,0,0.2,0,0.3c0,0.5,0,1.1,0,1.6s0,1,0.1,1.5c0,0.2,0,0.3,0,0.5c0.1,0.9,0.1,1.9,0.2,2.8V93
		c0,0.1,0,0.3,0,0.4c0.2,2.1,0.6,4.3,1,6.4C102.7,102.2,103.2,104.4,103.9,106.6z"/>
	<path id="XMLID_13_" class="st4 magniFill" d="M161.5,232.8c0,4.6,3.7,8.3,8.2,8.5c-4.5,0.2-8.2,3.9-8.2,8.5s3.7,8.3,8.2,8.5
		c-4.5,0.2-8.2,3.9-8.2,8.5c0,4.5,3.5,8.2,7.9,8.5c-4.3,0-7.9,3.6-7.9,7.9c0,4.4,3.6,7.9,7.9,7.9h10.8h6.4c4.4,0,7.9-3.6,7.9-7.9
		c0-4.2-3.2-7.6-7.3-7.9h2.1c4.7,0,8.5-3.8,8.5-8.5c0-4.5-3.5-8.1-7.9-8.5h1.2c4.7,0,8.5-3.8,8.5-8.5s-3.8-8.5-8.5-8.5h-1.2
		c4.4-0.3,7.9-4,7.9-8.5c0-4.7-3.8-8.5-8.5-8.5h-9.2H170C165.3,224.3,161.5,228.2,161.5,232.8z M165.6,288.8c0,0-2.6-1.6-2.6-5.8
		s2.6-5.5,2.6-5.5s10.3-1.3,10.3,5.7S165.6,288.8,165.6,288.8z M166.2,273c0,0-2.9-1.8-2.9-6.3s2.9-6.1,2.9-6.1s11.3-1.5,11.3,6.2
		S166.2,273,166.2,273z M166.2,256c0,0-2.9-1.8-2.9-6.3s2.9-6.1,2.9-6.1s11.3-1.5,11.3,6.2C177.5,257.5,166.2,256,166.2,256z
		 M177.5,232.8c0,7.6-11.3,6.2-11.3,6.2s-2.9-1.8-2.9-6.3s2.9-6.1,2.9-6.1S177.5,225.2,177.5,232.8z"/>
	<path id="XMLID_12_" class="st5 magniFill" d="M166.2,226.7c0,0-2.9,1.5-2.9,6.1s2.9,6.3,2.9,6.3s11.3,1.5,11.3-6.2S166.2,226.7,166.2,226.7z
		"/>
	<path id="XMLID_11_" class="st5 magniFill" d="M166.2,243.6c0,0-2.9,1.5-2.9,6.1s2.9,6.3,2.9,6.3s11.3,1.5,11.3-6.2S166.2,243.6,166.2,243.6z
		"/>
	<path id="XMLID_7_" class="st5 magniFill" d="M166.2,260.6c0,0-2.9,1.5-2.9,6.1s2.9,6.3,2.9,6.3s11.3,1.5,11.3-6.2S166.2,260.6,166.2,260.6z"
		/>
	<path id="XMLID_6_" class="st5 magniFill" d="M165.6,277.5c0,0-2.6,1.4-2.6,5.5s2.6,5.8,2.6,5.8s10.3,1.3,10.3-5.7S165.6,277.5,165.6,277.5z"
		/>
	<path id="XMLID_5_" class="st5 magniFill" d="M163,209.3c0.7-0.8,5.2-3,0.5-4.2l0,0c-1.5-0.4-3.3,0-5.2,0.6c-4,1.4-8,4.3-8,4.3
		C153.4,216.7,162.3,210.1,163,209.3z"/>
	<path id="XMLID_2_" class="st4 magniFill" d="M110.9,268.4c5.4,0.8,20.8-4.2,26.3-15.7c5.9-12.2,12-21.4,21-25.4l0,0l9-4
		c4.8-2.1,6.9-7.8,4.8-12.6c-1.6-3.5-5-5.6-8.7-5.6c4.7,1.2,0.2,3.4-0.5,4.2s-9.6,7.4-12.7,0.7l-11.8,5.3
		c-7.4,1.8-23.8,8.7-27.5,16.1v30.3L110.9,268.4L110.9,268.4z"/>
	<polygon id="XMLID_127_" class="st6 magniFill" points="110.9,261.6 110.9,231.4 110.9,226.3 86.8,226.3 86.8,261.6 	"/>
	<polygon id="XMLID_128_" class="st7 magniFill" points="110.9,260.6 86.8,260.6 86.8,260.7 86.8,296 110.9,296 110.9,291 110.9,267.4 	"/>
	<polygon id="XMLID_129_" class="st2 magniFill" points="86.8,261.6 86.8,226.3 86.8,221.7 0,221.7 0,261.7 86.8,261.7 	"/>
	<polygon id="XMLID_130_" class="st8 magniFill" points="0,260.7 0,300.7 86.8,300.7 86.8,296 86.8,260.7 	"/>
</g>
</svg>
